<mxfile host="app.diagrams.net" modified="2023-07-26T10:32:11.901Z" agent="Mozilla/5.0 (Windows NT 10.0; Win64; x64) AppleWebKit/537.36 (KHTML, like Gecko) Chrome/115.0.0.0 Safari/537.36" etag="mrmnbwTZq8z9G4nOIy-p" version="21.6.5" type="github">
  <diagram name="第 1 页" id="VAXkkfN3yXfzUiDOJ94b">
    <mxGraphModel dx="1434" dy="758" grid="1" gridSize="10" guides="1" tooltips="1" connect="1" arrows="1" fold="1" page="1" pageScale="1" pageWidth="827" pageHeight="1169" math="0" shadow="0">
      <root>
        <mxCell id="0" />
        <mxCell id="1" parent="0" />
        <mxCell id="MwvR7IS0rDGGBposnLcL-12" style="edgeStyle=orthogonalEdgeStyle;rounded=0;orthogonalLoop=1;jettySize=auto;html=1;exitX=0.5;exitY=1;exitDx=0;exitDy=0;entryX=0.5;entryY=0;entryDx=0;entryDy=0;" edge="1" parent="1" source="MwvR7IS0rDGGBposnLcL-1" target="MwvR7IS0rDGGBposnLcL-11">
          <mxGeometry relative="1" as="geometry" />
        </mxCell>
        <mxCell id="MwvR7IS0rDGGBposnLcL-1" value="QA抽取" style="rounded=1;whiteSpace=wrap;html=1;" vertex="1" parent="1">
          <mxGeometry x="160" y="200" width="80" height="40" as="geometry" />
        </mxCell>
        <mxCell id="MwvR7IS0rDGGBposnLcL-16" style="edgeStyle=orthogonalEdgeStyle;rounded=0;orthogonalLoop=1;jettySize=auto;html=1;exitX=0.46;exitY=1.075;exitDx=0;exitDy=0;entryX=0.5;entryY=0;entryDx=0;entryDy=0;exitPerimeter=0;" edge="1" parent="1" source="MwvR7IS0rDGGBposnLcL-2" target="MwvR7IS0rDGGBposnLcL-14">
          <mxGeometry relative="1" as="geometry">
            <Array as="points">
              <mxPoint x="80" y="123" />
            </Array>
          </mxGeometry>
        </mxCell>
        <mxCell id="MwvR7IS0rDGGBposnLcL-17" style="edgeStyle=orthogonalEdgeStyle;rounded=0;orthogonalLoop=1;jettySize=auto;html=1;exitX=1;exitY=0.5;exitDx=0;exitDy=0;entryX=0.5;entryY=0;entryDx=0;entryDy=0;" edge="1" parent="1" source="MwvR7IS0rDGGBposnLcL-2" target="MwvR7IS0rDGGBposnLcL-7">
          <mxGeometry relative="1" as="geometry" />
        </mxCell>
        <mxCell id="MwvR7IS0rDGGBposnLcL-2" value="文档" style="shape=document;whiteSpace=wrap;html=1;boundedLbl=1;" vertex="1" parent="1">
          <mxGeometry x="55" y="80" width="50" height="40" as="geometry" />
        </mxCell>
        <mxCell id="MwvR7IS0rDGGBposnLcL-9" style="edgeStyle=orthogonalEdgeStyle;rounded=0;orthogonalLoop=1;jettySize=auto;html=1;exitX=0.5;exitY=1;exitDx=0;exitDy=0;entryX=0.5;entryY=0;entryDx=0;entryDy=0;" edge="1" parent="1" source="MwvR7IS0rDGGBposnLcL-7" target="MwvR7IS0rDGGBposnLcL-1">
          <mxGeometry relative="1" as="geometry" />
        </mxCell>
        <mxCell id="MwvR7IS0rDGGBposnLcL-10" style="edgeStyle=orthogonalEdgeStyle;rounded=0;orthogonalLoop=1;jettySize=auto;html=1;exitX=1;exitY=0.5;exitDx=0;exitDy=0;" edge="1" parent="1" source="MwvR7IS0rDGGBposnLcL-7" target="MwvR7IS0rDGGBposnLcL-8">
          <mxGeometry relative="1" as="geometry" />
        </mxCell>
        <mxCell id="MwvR7IS0rDGGBposnLcL-7" value="分片" style="rounded=1;whiteSpace=wrap;html=1;" vertex="1" parent="1">
          <mxGeometry x="160" y="120" width="80" height="40" as="geometry" />
        </mxCell>
        <mxCell id="MwvR7IS0rDGGBposnLcL-13" style="edgeStyle=orthogonalEdgeStyle;rounded=0;orthogonalLoop=1;jettySize=auto;html=1;exitX=0.5;exitY=1;exitDx=0;exitDy=0;entryX=1;entryY=0.5;entryDx=0;entryDy=0;" edge="1" parent="1" source="MwvR7IS0rDGGBposnLcL-8" target="MwvR7IS0rDGGBposnLcL-11">
          <mxGeometry relative="1" as="geometry" />
        </mxCell>
        <mxCell id="MwvR7IS0rDGGBposnLcL-8" value="句子抽取" style="rounded=1;whiteSpace=wrap;html=1;" vertex="1" parent="1">
          <mxGeometry x="280" y="200" width="80" height="40" as="geometry" />
        </mxCell>
        <mxCell id="MwvR7IS0rDGGBposnLcL-11" value="向量化" style="rounded=1;whiteSpace=wrap;html=1;" vertex="1" parent="1">
          <mxGeometry x="160" y="280" width="80" height="40" as="geometry" />
        </mxCell>
        <mxCell id="MwvR7IS0rDGGBposnLcL-14" value="存Ceph" style="rounded=1;whiteSpace=wrap;html=1;" vertex="1" parent="1">
          <mxGeometry x="40" y="160" width="80" height="40" as="geometry" />
        </mxCell>
      </root>
    </mxGraphModel>
  </diagram>
</mxfile>
